<svg height="512pt" viewBox="-31 0 512 512" width="512pt" xmlns="http://www.w3.org/2000/svg"><path d="m168 121-3 30-27.300781-30-15.296875-91h-122.402344v-30h147.597656l17.402344 103.300781zm0 0" fill="#575f64"/><path d="m168 121-3 30v-47.699219zm0 0" fill="#32393f"/><path d="m390 136c0 57.988281-47.011719 105-105 105s-105-47.011719-105-105 47.011719-106 105-106 105 48.011719 105 106zm0 0" fill="#6b0"/><path d="m285 211c-41.351562 0-75-33.648438-75-75s33.648438-76 75-76 75 34.648438 75 76-33.648438 75-75 75zm0 0" fill="#ffda2d"/><path d="m300 121v128.398438l-37.199219 53.703124-97.800781-5.101562-93.601562-5.101562-41.398438-38.699219v-133.199219h107.699219l27.300781 41.398438.300781.601562 2.699219-42zm0 0" fill="#ececf1"/><path d="m300 121v128.398438l-37.199219 53.703124-97.800781-5.101562v-135.601562l.300781.601562 2.699219-42zm0 0" fill="#d3d3d8"/><path d="m195 278.199219-29.699219 4.800781-.300781-1.800781-27.300781-160.199219h30.300781zm0 0" fill="#7c8388"/><path d="m195 278.199219-29.699219 4.800781-.300781-1.800781v-160.199219h3zm0 0" fill="#575f64"/><path d="m300 249.398438v262.601562h-270v-257.800781c40.800781-26.097657 93.300781-27.300781 135-1.5 3 2.097656 6 4.199219 9 6.300781 25.5 19.199219 58.800781 24.300781 88.800781 14.101562 14.398438-4.800781 26.699219-13.203124 37.199219-23.703124zm0 0" fill="#ff641a"/><g fill="#f03800"><path d="m300 249.398438v262.601562h-135v-259.300781c3 2.097656 6 4.199219 9 6.300781 25.5 19.199219 58.800781 24.300781 88.800781 14.101562 14.398438-4.800781 26.699219-13.203124 37.199219-23.703124zm0 0"/><path d="m135 391c-24.8125 0-45-20.1875-45-45s20.1875-45 45-45 45 20.1875 45 45-20.1875 45-45 45zm0 0"/><path d="m150 421h30v30h-30zm0 0"/></g><path d="m210 361h30v30h-30zm0 0" fill="#cd0000"/><path d="m420 407.800781-30 1.5c-1.5-31.5-18.300781-60-45-76.199219-26.699219 16.199219-43.800781 44.699219-45 76.199219l-30-1.5c1.800781-44.699219 28.199219-85.203125 68.402344-105.300781l6.597656-3.300781 6.597656 3.300781c40.203125 20.097656 66.300782 60.601562 68.402344 105.300781zm0 0" fill="#9cdd05"/><path d="m330 256h30v60h-30zm0 0" fill="#9cdd05"/><path d="m420 407.800781-30 1.5c-1.5-31.5-18.300781-60-45-76.199219v-33.902343l6.597656 3.300781c40.203125 20.097656 66.300782 60.601562 68.402344 105.300781zm0 0" fill="#6b0"/><path d="m345 256h15v60h-15zm0 0" fill="#6b0"/><path d="m390 391c-18 0-33.898438 8.097656-45 20.699219-11.101562-12.601563-27-20.699219-45-20.699219-33 0-60 27-60 60s27 61 60 61c18 0 33.898438-8.101562 45-20.699219 11.101562 12.597657 27 20.699219 45 20.699219 33 0 60-28 60-61s-27-60-60-60zm0 0" fill="#ff641a"/><path d="m450 451c0 33-27 61-60 61-18 0-33.898438-8.101562-45-20.699219v-79.601562c11.101562-12.601563 27-20.699219 45-20.699219 33 0 60 27 60 60zm0 0" fill="#f03800"/><path d="m165 421h15v30h-15zm0 0" fill="#cd0000"/></svg>