<svg height="512pt" viewBox="0 -16 512 511" width="512pt" xmlns="http://www.w3.org/2000/svg"><path d="m87.3125 12.085938c-4.660156-10.242188-16.917969-14.535157-26.953125-9.433594-10.03125 5.101562-13.785156 17.535156-8.253906 27.335937l78.304687 138.941407 25.976563-4.644532zm0 0" fill="#eceaec"/><path d="m52.105469 29.988281 78.300781 138.941407 13.136719-2.347657-83.183594-163.929687c-10.03125 5.101562-13.785156 17.535156-8.253906 27.335937zm0 0" fill="#dad8db"/><path d="m317.675781 149.4375c0 9.121094-7.394531 16.515625-16.515625 16.515625s-16.515625-7.394531-16.515625-16.515625 7.394531-16.515625 16.515625-16.515625 16.515625 7.394531 16.515625 16.515625zm0 0" fill="#ff8086"/><path d="m306.667969 160.449219c-9.121094 0-16.515625-7.394531-16.515625-16.519531 0-3.144532 1.003906-6.160157 2.53125-8.664063-4.871094 2.871094-8.039063 8.195313-8.039063 14.171875 0 9.121094 7.394531 16.515625 16.515625 16.515625 2.992188 0 5.785156-.804687 8.195313-2.203125zm0 0" fill="#e5646e"/><path d="m227.226562 149.4375c0 9.121094-7.394531 16.515625-16.515624 16.515625-9.121094 0-16.515626-7.394531-16.515626-16.515625s7.394532-16.515625 16.515626-16.515625c9.121093 0 16.515624 7.394531 16.515624 16.515625zm0 0" fill="#ff8086"/><path d="m216.214844 160.449219c-9.121094 0-16.515625-7.394531-16.515625-16.519531 0-3.144532.960937-6.148438 2.488281-8.652344-4.753906 2.902344-7.996094 8.183594-7.996094 14.160156 0 9.121094 7.398438 16.515625 16.519532 16.515625 5.972656 0 11.160156-3.203125 14.0625-7.957031-2.503907 1.523437-5.414063 2.453125-8.558594 2.453125zm0 0" fill="#e5646e"/><path d="m280.773438 140.886719c0 13.683593-11.089844 24.773437-24.773438 24.773437s-24.773438-11.089844-24.773438-24.773437c0-13.683594 11.089844-24.773438 24.773438-24.773438s24.773438 11.089844 24.773438 24.773438zm0 0" fill="#ff8086"/><path d="m239.484375 132.628906c0-4.71875 1.472656-9.234375 3.761719-12.988281-7.230469 4.296875-12.019532 12.28125-12.019532 21.246094 0 13.683593 11.089844 24.773437 24.773438 24.773437l8.257812-8.257812c-13.683593 0-24.773437-11.089844-24.773437-24.773438zm0 0" fill="#e5646e"/><path d="m8.257812 215.210938c-4.5625 0-8.257812 3.695312-8.257812 8.257812v8.257812c0 82.003907 52.519531 144.015626 130.261719 181.675782h251.476562c77.742188-37.660156 130.261719-99.671875 130.261719-181.675782v-8.257812c0-4.5625-3.695312-8.257812-8.257812-8.257812zm0 0" fill="#f6d190"/><path d="m256 157.402344c-127.703125 0-231.226562 25.882812-231.226562 57.804687h462.453124c0-31.921875-103.523437-57.804687-231.226562-57.804687zm0 0" fill="#fff5d7"/><path d="m132.128906 413.402344h247.742188v33.03125h-247.742188zm0 0" fill="#ecbd83"/><path d="m123.871094 231.726562v-16.515624h-115.613282c-4.5625 0-8.257812 3.695312-8.257812 8.257812v8.257812c0 82.003907 52.519531 144.015626 130.261719 181.675782h60.84375c-40.128907-37.660156-67.234375-99.671875-67.234375-181.675782zm0 0" fill="#ecbd83"/><path d="m379.871094 413.402344h-247.742188v33.03125h66.066406v-4.128906c0-6.839844 5.542969-12.386719 12.386719-12.386719h169.289063zm0 0" fill="#e2a975"/><path d="m454.195312 479.46875h-396.390624c-4.558594 0-8.257813-3.699219-8.257813-8.257812v-16.515626c0-4.5625 3.699219-8.261718 8.257813-8.261718h396.386718c4.5625 0 8.257813 3.699218 8.257813 8.261718v16.515626c.003906 4.558593-3.695313 8.257812-8.253907 8.257812zm0 0" fill="#c38c66"/><path d="m462.453125 462.953125v-8.257813c0-4.5625-3.699219-8.261718-8.257813-8.261718h-289.035156v8.261718c0 4.558594 3.699219 8.257813 8.257813 8.257813zm0 0" fill="#d19a6e"/><path d="m477.65625 198.695312h-333.316406c-11.792969 0-18.835938-13.734374-11.414063-22.898437 3.132813-3.871094 7.0625-7.640625 11.667969-11.257813-71.402344 9.839844-119.820312 28.847657-119.820312 50.671876h462.453124c0-5.742188-3.335937-11.28125-9.570312-16.515626zm0 0" fill="#ffeaa8"/></svg>