<svg height="512pt" viewBox="0 -15 512.17076 512" width="512pt" xmlns="http://www.w3.org/2000/svg"><path d="m462.804688 177.613281h-445.402344c-6.597656-.203125-12-5.800781-11.796875-12.402343.199219-6.398438 5.398437-11.597657 11.796875-11.800782h445.402344c6.597656-.199218 12.199218 5.203125 12.398437 11.800782.199219 6.601562-5.199219 12.199218-11.800781 12.402343-.199219 0-.398438 0-.597656 0zm0 0" fill="#caecfc"/><path d="m18.003906 177.613281c1.199219 87.398438 17.601563 162.199219 65.199219 221.597657 15.199219 19.402343 28 40.800781 37.800781 63.402343 3.800782 8.398438 12.199219 14 21.398438 14h195c9.203125 0 17.601562-5.601562 21.402344-14 10-22.601562 22.597656-44 37.800781-63.402343 47.597656-59.199219 64-134.199219 65.199219-221.597657zm0 0" fill="#acdef9"/><path d="m506.203125 16.410156c-2-3.398437-6-5-9.800781-3.796875-87.796875 27.199219-149.398438 92.597657-184.796875 140.597657h70.597656c35.601563-61.597657 88.199219-102.800782 121.402344-126 3.597656-2.398438 4.597656-7.199219 2.597656-10.800782zm0 0" fill="#b26e3b"/><path d="m106.804688 434.210938c6.199218 11 11 20.800781 14.199218 28.402343 3.800782 8.398438 12.199219 14 21.398438 14h195c9.203125 0 17.601562-5.601562 21.402344-14 3.398437-7.601562 8-17.402343 14.199218-28.402343zm0 0" fill="#caecfc"/><path d="m447.804688 413.410156h-3.601563v-3.597656c0-2.800781-2.199219-5-5-5s-5 2.199219-5 5v3.597656h-3.597656c-2.800781 0-5 2.203125-5 5 0 2.800782 2.199219 5 5 5h3.597656v3.601563c0 2.800781 2.199219 5 5 5s5-2.199219 5-5v-3.601563h3.601563c2.800781 0 5-2.199218 5-5 0-2.796875-2.199219-5-5-5zm0 0" fill="#55acd5"/><path d="m471.402344 370.011719c0-.398438-.199219-.601563-.199219-1-.199219-.199219-.199219-.601563-.398437-.800781-.199219-.199219-.402344-.597657-.601563-.800782-2-1.796875-5.199219-1.796875-7 .203125-.199219.199219-.398437.398438-.597656.796875-.402344.601563-.601563 1.203125-.800781 1.800782-.199219.601562-.199219 1.402343 0 2 0 .402343.199218.601562.199218 1 .199219.402343.199219.601562.398438.800781.203125.199219.402344.601562.601562.800781 2 2 5.199219 2 7 0 .199219-.199219.398438-.402344.601563-.800781.199219-.199219.398437-.601563.398437-.800781.199219-.199219.199219-.597657.199219-1 .402344-.800782.402344-1.597657.199219-2.199219zm0 0" fill="#ffcd29"/><path d="m59.402344 418.011719c0-.398438-.199219-.601563-.199219-1-.199219-.199219-.199219-.601563-.398437-.800781-.199219-.199219-.402344-.597657-.601563-.800782-2-1.796875-5.199219-1.796875-7 .203125-.199219.199219-.398437.398438-.597656.796875-.402344.601563-.601563 1.203125-.800781 1.800782-.199219.601562-.199219 1.402343 0 2 0 .402343.199218.601562.199218 1 .199219.402343.199219.601562.398438.800781.203125.199219.402344.601562.601562.800781 2 2 5.199219 2 7 0 .199219-.199219.398438-.402344.601563-.800781.199219-.199219.398437-.601563.398437-.800781.199219-.199219.199219-.597657.199219-1 .402344-.800782.402344-1.597657.199219-2.199219zm0 0" fill="#6dcc6d"/><path d="m293.402344 4.011719c0-.398438-.199219-.601563-.199219-1-.199219-.199219-.199219-.601563-.398437-.800781-.199219-.199219-.402344-.597657-.601563-.800782-2-1.796875-5.199219-1.796875-7 .203125-.199219.199219-.398437.398438-.597656.796875-.402344.601563-.601563 1.203125-.800781 1.800782-.199219.601562-.199219 1.402343 0 2 0 .402343.199218.601562.199218 1 .199219.402343.199219.601562.398438.800781.203125.199219.402344.601562.601562.800781 2 2 5.199219 2 7 0 .199219-.199219.398438-.402344.601563-.800781.199219-.199219.398437-.601563.398437-.800781.199219-.199219.199219-.597657.199219-1 .402344-.800782.402344-1.597657.199219-2.199219zm0 0" fill="#ea4647"/><path d="m356.804688 28.613281c-8-1.601562-14.199219-7.800781-15.800782-15.800781 0-.199219-.199218-.402344-.398437-.199219-.203125 0-.203125.199219-.203125.199219-1.597656 8-7.796875 14.199219-15.796875 15.800781-.203125 0-.402344.199219-.203125.398438 0 .199219.203125.199219.203125.199219 8 1.601562 14.199219 7.800781 15.796875 15.800781 0 .199219.203125.398437.402344.199219.199218 0 .199218-.199219.199218-.199219 1.601563-8 7.800782-14.199219 15.800782-15.800781.199218 0 .398437-.199219.199218-.398438 0 0 0-.199219-.199218-.199219zm0 0" fill="#ffcd29"/><path d="m462.804688 182.613281h-445.402344c-9.398438.199219-17.199219-7.203125-17.39843775-16.800781-.19921825-9.402344 7.19921875-17.199219 16.80078175-17.402344h.800781 445.398437c9.398438-.199218 17.199219 7.203125 17.398438 16.800782.203125 9.402343-7.199219 17.199218-16.796875 17.402343-.402344 0-.601563 0-.800781 0zm-445.402344-24.203125c-4-.199218-7.199219 3-7.398438 6.800782-.199218 3.800781 3 7.199218 6.800782 7.402343h.398437 445.402344c4 .199219 7.199219-3 7.398437-6.800781.199219-4-3-7.199219-6.800781-7.402344-.199219 0-.398437 0-.398437 0zm0 0"/><path d="m337.402344 481.410156h-194.796875c-11.203125 0-21.402344-6.597656-26-17-9.800781-22.199218-22.203125-43.199218-37.203125-62.398437-44-54.601563-65-126-66.398438-224.601563 0-2.796875 2.199219-5 5-5h444c2.800782 0 5 2.203125 5 5-1.398437 98.601563-22.398437 170-66.398437 224.601563-15 19.199219-27.402344 40-37.203125 62.398437-4.398438 10.402344-14.597656 17-26 17zm-314.398438-298.796875c2 93.597657 22.398438 161.597657 64 213.398438 15.601563 19.800781 28.398438 41.601562 38.601563 64.601562 3 6.597657 9.597656 11 16.796875 11h195c7.203125 0 13.800781-4.402343 16.800781-11 10-23 23-44.800781 38.601563-64.601562 41.597656-51.800781 62-119.800781 64-213.398438zm0 0"/><path d="m382.203125 158.410156h-70.597656c-2.800781 0-5-2.199218-5-5 0-1 .398437-2.199218 1-3 36.597656-50 99-115.199218 187.199219-142.597656 6-2 12.398437.597656 15.597656 6.199219 3.402344 6 1.800781 13.398437-4 17.398437-54.199219 38-93.597656 78.601563-120 124.402344-.597656 1.597656-2.398438 2.597656-4.199219 2.597656zm-60.597656-10h57.796875c27.203125-46 66.800781-87 121.402344-125.199218 1.398437-1 1.800781-2.800782 1-4.199219-.800782-1.398438-2.402344-2-3.800782-1.398438-81.199218 25-140 83.199219-176.398437 130.796875zm0 0"/><path d="m76.402344 127.613281c-2.796875 0-5-2.203125-5-5 0-3.203125-1-6.402343-3-8.800781-6.398438-8.601562-6.398438-20.402344 0-28.800781 2-2.398438 3.203125-5.601563 3-8.800781 0-2.800782 2.203125-5 5-5 2.800781 0 5 2.199218 5 5 0 5.199218-1.597656 10.402343-4.796875 14.402343-4.203125 5.199219-4.203125 12.398438 0 17.597657 3.199219 4.199218 4.796875 9.199218 4.796875 14.402343 0 2.796875-2.199219 5-5 5zm0 0"/><path d="m131.402344 127.613281c-2.796875 0-5-2.203125-5-5 0-3.203125-1-6.402343-3-8.800781-6.398438-8.601562-6.398438-20.402344 0-28.800781 2-2.398438 3.203125-5.601563 3-8.800781 0-2.800782 2.203125-5 5-5 2.800781 0 5 2.199218 5 5 0 5.199218-1.597656 10.402343-4.796875 14.402343-4.203125 5.199219-4.203125 12.398438 0 17.597657 3.199219 4.199218 4.796875 9.199218 4.796875 14.402343 0 2.796875-2.199219 5-5 5zm0 0"/><path d="m186.402344 127.613281c-2.796875 0-5-2.203125-5-5 0-3.203125-1-6.402343-3-8.800781-6.398438-8.601562-6.398438-20.402344 0-28.800781 2-2.398438 3.203125-5.601563 3-8.800781 0-2.800782 2.203125-5 5-5 2.800781 0 5 2.199218 5 5 0 5.199218-1.597656 10.402343-4.796875 14.402343-4.203125 5.199219-4.203125 12.398438 0 17.597657 3.199219 4.199218 4.796875 9.199218 4.796875 14.402343 0 2.796875-2.199219 5-5 5zm0 0"/><path d="m241.402344 127.613281c-2.796875 0-5-2.203125-5-5 0-3.203125-1-6.402343-3-8.800781-6.398438-8.601562-6.398438-20.402344 0-28.800781 2-2.398438 3.203125-5.601563 3-8.800781 0-2.800782 2.203125-5 5-5 2.800781 0 5 2.199218 5 5 0 5.199218-1.597656 10.402343-4.796875 14.402343-4.203125 5.199219-4.203125 12.398438 0 17.597657 3.199219 4.199218 4.796875 9.199218 4.796875 14.402343 0 2.796875-2.199219 5-5 5zm0 0"/><path d="m296.402344 127.613281c-2.796875 0-5-2.203125-5-5 0-3.203125-1-6.402343-3-8.800781-6.398438-8.601562-6.398438-20.402344 0-28.800781 2-2.398438 3.203125-5.601563 3-8.800781 0-2.800782 2.203125-5 5-5 2.800781 0 5 2.199218 5 5 0 5.199218-1.597656 10.402343-4.796875 14.402343-4.203125 5.199219-4.203125 12.398438 0 17.597657 3.199219 4.199218 4.796875 9.199218 4.796875 14.402343 0 2.796875-2.199219 5-5 5zm0 0"/><path d="m337.402344 481.410156h-194.796875c-11.203125 0-21.402344-6.597656-26-17-4.203125-9.398437-9-18.796875-14-28-1.402344-2.398437-.601563-5.398437 1.796875-6.796875.800781-.402343 1.601562-.601562 2.402344-.601562h266.199218c2.800782 0 5 2.199219 5 5 0 .800781-.199218 1.800781-.601562 2.398437-5.199219 9-9.796875 18.402344-14 28-4.398438 10.402344-14.597656 17-26 17zm-222-42.199218c3.800781 7 7.203125 14.199218 10.402344 21.402343 3 6.597657 9.597656 11 16.800781 11h195c7.199219 0 13.796875-4.402343 16.796875-11 3.203125-7.203125 6.601562-14.402343 10.402344-21.402343zm0 0"/></svg>